<?xml version="1.0" encoding="UTF-8"?>
<!DOCTYPE svg PUBLIC "-//W3C//DTD SVG 1.1//EN" "http://www.w3.org/Graphics/SVG/1.1/DTD/svg11.dtd">
<svg xmlns="http://www.w3.org/2000/svg" version="1.1" width="500px" height="500px" style="shape-rendering:geometricPrecision; text-rendering:geometricPrecision; image-rendering:optimizeQuality; fill-rule:evenodd; clip-rule:evenodd" xmlns:xlink="http://www.w3.org/1999/xlink">
<g><path style="opacity:1" fill="#fffefe" d="M -0.5,-0.5 C 166.167,-0.5 332.833,-0.5 499.5,-0.5C 499.5,166.167 499.5,332.833 499.5,499.5C 332.833,499.5 166.167,499.5 -0.5,499.5C -0.5,332.833 -0.5,166.167 -0.5,-0.5 Z"/></g>
<g><path style="opacity:1" fill="#ff9554" d="M 374.5,347.5 C 373.28,349.05 373.28,350.716 374.5,352.5C 373.294,355.139 371.294,355.972 368.5,355C 367.62,353.644 367.286,352.144 367.5,350.5C 366.127,350.343 364.793,350.51 363.5,351C 357.355,355.644 351.355,360.477 345.5,365.5C 343.084,368.663 340.918,371.996 339,375.5C 338.257,377.441 338.424,379.274 339.5,381C 342.167,381.667 344.833,381.667 347.5,381C 349.43,377.947 351.93,375.447 355,373.5C 357.993,366.845 361.493,360.512 365.5,354.5C 370.746,357.976 370.58,361.309 365,364.5C 363.987,369.2 361.654,373.2 358,376.5C 357.517,377.448 357.351,378.448 357.5,379.5C 356.448,379.351 355.448,379.517 354.5,380C 350.682,384.741 345.682,387.074 339.5,387C 336.585,390.174 334.085,389.674 332,385.5C 330.924,383.933 330.091,382.266 329.5,380.5C 331.381,369.57 336.714,360.737 345.5,354C 353.447,347.805 361.613,341.972 370,336.5C 372.163,331.493 371.996,326.66 369.5,322C 367.167,321.333 364.833,321.333 362.5,322C 355.212,326.39 347.379,329.556 339,331.5C 336.765,329.629 334.265,328.129 331.5,327C 330.299,326.097 329.465,324.931 329,323.5C 328.423,319.112 328.756,314.779 330,310.5C 333,306.833 336,303.167 339,299.5C 345.344,294.911 351.177,289.744 356.5,284C 360.829,282.849 364.662,283.682 368,286.5C 368.667,287.5 368.667,288.5 368,289.5C 366.184,290.329 364.351,291.163 362.5,292C 359.825,295.842 356.491,299.008 352.5,301.5C 349.167,306.5 345.833,311.5 342.5,316.5C 343.167,316.833 343.833,317.167 344.5,317.5C 354.296,314.381 364.296,312.881 374.5,313C 379.084,314.075 381.084,316.908 380.5,321.5C 381.833,321.5 383.167,321.5 384.5,321.5C 384.253,325.247 385.92,327.58 389.5,328.5C 394.072,327.995 398.572,327.328 403,326.5C 402.732,318.663 402.565,310.83 402.5,303C 402.937,292.18 404.271,281.514 406.5,271C 405.772,265.521 405.938,260.021 407,254.5C 410.073,253.383 413.24,253.216 416.5,254C 417.137,256.243 417.47,258.576 417.5,261C 415.562,278.215 413.729,295.381 412,312.5C 416.542,306.29 422.042,301.124 428.5,297C 431.025,296.104 433.192,296.604 435,298.5C 435.591,305.069 433.924,311.069 430,316.5C 426.949,320.774 423.783,324.941 420.5,329C 423.624,336.133 428.291,342.133 434.5,347C 439.924,351.292 445.591,355.125 451.5,358.5C 449.919,361.541 447.419,363.207 444,363.5C 432.117,360.639 422.617,354.139 415.5,344C 412.886,341.662 410.886,341.995 409.5,345C 411.785,348.648 412.452,352.481 411.5,356.5C 415.22,361.458 416.053,366.791 414,372.5C 412.534,374.325 410.701,374.825 408.5,374C 407.856,371.26 406.689,368.76 405,366.5C 403.355,355.494 402.188,344.494 401.5,333.5C 398.813,333.336 396.146,333.503 393.5,334C 389.474,336.046 385.474,338.046 381.5,340C 378.603,341.715 377.269,344.215 377.5,347.5C 376.5,347.5 375.5,347.5 374.5,347.5 Z"/></g>
<g><path style="opacity:1" fill="#ff9553" d="M 206.5,266.5 C 216.882,265.238 225.049,268.905 231,277.5C 233.934,284.374 236.601,291.374 239,298.5C 239.607,301.202 239.44,303.868 238.5,306.5C 241.313,323.266 238.147,338.933 229,353.5C 213.563,369.411 198.229,369.411 183,353.5C 179.457,347.748 176.457,341.748 174,335.5C 169.446,313.607 173.113,293.274 185,274.5C 186.873,272.291 189.04,270.458 191.5,269C 196.728,268.704 201.728,267.871 206.5,266.5 Z"/></g>
<g><path style="opacity:1" fill="#ff9554" d="M 147.5,266.5 C 157.347,264.297 161.18,267.963 159,277.5C 157.814,282.264 156.314,286.93 154.5,291.5C 154.667,292.167 154.833,292.833 155,293.5C 155.654,292.304 156.154,292.304 156.5,293.5C 153.943,296.699 152.943,300.366 153.5,304.5C 155.722,304.822 157.556,304.155 159,302.5C 160.963,305.352 160.63,308.019 158,310.5C 152.895,313.383 150.395,317.716 150.5,323.5C 149.167,323.5 147.833,323.5 146.5,323.5C 147.063,330.265 146.063,336.765 143.5,343C 143.762,348.062 143.929,353.229 144,358.5C 143.124,362.354 141.124,365.354 138,367.5C 136.739,367.241 135.739,366.574 135,365.5C 133.678,357.833 133.511,350.167 134.5,342.5C 135.895,343.815 136.895,343.481 137.5,341.5C 136.826,339.483 135.659,337.817 134,336.5C 133.393,333.798 133.56,331.132 134.5,328.5C 133.672,325.521 133.005,322.521 132.5,319.5C 130.473,319.338 128.473,319.505 126.5,320C 121.764,322.435 116.764,324.101 111.5,325C 110,326.5 108.5,328 107,329.5C 106.586,329.043 106.086,328.709 105.5,328.5C 104.481,329.687 103.314,330.687 102,331.5C 103.248,337.721 103.582,344.054 103,350.5C 103.202,352.256 103.702,353.922 104.5,355.5C 105.167,355.167 105.833,354.833 106.5,354.5C 107.113,359.771 108.113,364.938 109.5,370C 109.025,373.799 107.192,376.633 104,378.5C 102.395,377.899 101.062,376.899 100,375.5C 96.8084,358.666 95.6418,341.666 96.5,324.5C 88.4136,324.438 82.9136,328.105 80,335.5C 76.7899,336.701 74.1233,338.701 72,341.5C 70.8929,346.381 68.7262,350.714 65.5,354.5C 66.376,355.251 67.376,355.751 68.5,356C 65.083,360.189 60.9164,362.355 56,362.5C 49.8973,367.067 43.064,368.901 35.5,368C 31.7884,365.442 30.6217,361.942 32,357.5C 36.7867,350.712 42.2867,344.546 48.5,339C 54.5008,334.664 60.8341,330.831 67.5,327.5C 69.339,325.473 69.839,323.14 69,320.5C 67.7009,319.02 66.0342,318.354 64,318.5C 56.6702,319.405 49.8369,321.905 43.5,326C 21.0666,332.573 14.8999,325.406 25,304.5C 36.5332,289.312 50.8666,277.312 68,268.5C 73.0217,269.952 76.3551,272.952 78,277.5C 74.5894,278.293 71.0894,278.793 67.5,279C 54.2714,285.229 43.1048,294.062 34,305.5C 32.6609,309.018 31.1609,312.518 29.5,316C 29.7247,317.621 30.558,318.788 32,319.5C 42.0342,315.575 52.3675,312.908 63,311.5C 70.5565,311.457 76.7231,314.29 81.5,320C 86.8086,319.904 92.142,319.738 97.5,319.5C 98.6056,309.929 99.939,300.429 101.5,291C 100.218,283.847 100.218,276.681 101.5,269.5C 104.919,267.564 108.419,267.231 112,268.5C 112.001,273.847 112.834,279.014 114.5,284C 112.633,295.109 110.466,305.943 108,316.5C 117.387,313.276 126.887,310.276 136.5,307.5C 136.336,304.813 136.503,302.146 137,299.5C 139.336,289.489 141.67,279.489 144,269.5C 145.145,268.364 146.312,267.364 147.5,266.5 Z"/></g>
<g><path style="opacity:1" fill="#ff9655" d="M 304.5,323.5 C 303.5,323.167 302.833,322.5 302.5,321.5C 302.611,320.883 302.944,320.383 303.5,320C 302.07,318.326 300.736,317.326 299.5,317C 304.368,306.326 306.535,295.159 306,283.5C 304.498,276.11 300.665,274.61 294.5,279C 290.519,283.25 286.519,287.584 282.5,292C 280.671,292.273 279.171,293.107 278,294.5C 277.833,294 277.667,293.5 277.5,293C 282.722,283.109 290.055,275.109 299.5,269C 309.52,266.976 315.687,270.809 318,280.5C 318.891,294.351 316.057,307.351 309.5,319.5C 308.813,317.726 307.98,316.059 307,314.5C 306.943,317.811 306.11,320.811 304.5,323.5 Z"/></g>
<g><path style="opacity:1" fill="#fffefd" d="M 205.5,271.5 C 213.103,271.535 219.27,274.535 224,280.5C 226.333,283.833 228.667,287.167 231,290.5C 235.523,305.204 235.523,319.871 231,334.5C 227.712,341.924 222.879,348.091 216.5,353C 211.31,354.933 206.31,354.433 201.5,351.5C 186.997,335.921 183.164,317.921 190,297.5C 193.403,287.68 198.57,279.013 205.5,271.5 Z"/></g>
<g><path style="opacity:1" fill="#ff9553" d="M 265.5,271.5 C 267.591,271.318 269.591,271.652 271.5,272.5C 271.833,275.5 272.167,278.5 272.5,281.5C 272.702,295.901 272.202,310.234 271,324.5C 274.081,328.607 277.914,331.774 282.5,334C 280.695,334.972 279.028,336.139 277.5,337.5C 275.49,335.829 273.157,335.162 270.5,335.5C 270.58,340.316 271.414,344.983 273,349.5C 275.107,357.694 273.273,364.694 267.5,370.5C 265.833,369.167 264.167,369.167 262.5,370.5C 261.522,370.023 260.689,369.357 260,368.5C 259.892,361.089 259.225,353.755 258,346.5C 257.333,334.167 257.333,321.833 258,309.5C 260.393,297.592 262.393,285.592 264,273.5C 264.717,272.956 265.217,272.289 265.5,271.5 Z"/></g>
<g><path style="opacity:1" fill="#ff9655" d="M 461.5,277.5 C 469.877,277.192 471.544,280.358 466.5,287C 462.294,287.835 460.294,286.002 460.5,281.5C 460.623,280.075 460.957,278.742 461.5,277.5 Z"/></g>
<g><path style="opacity:1" fill="#ffc8a6" d="M 107.5,292.5 C 109.337,292.639 109.67,293.306 108.5,294.5C 107.702,294.043 107.369,293.376 107.5,292.5 Z"/></g>
<g><path style="opacity:1" fill="#ff9553" d="M 457.5,300.5 C 464.75,299.912 468.917,303.246 470,310.5C 470.771,319.567 470.271,328.567 468.5,337.5C 468.953,341.173 469.453,344.84 470,348.5C 470.583,350.002 471.416,351.335 472.5,352.5C 479.047,346.077 483.547,338.41 486,329.5C 488.55,325.875 491.05,325.708 493.5,329C 487.632,338.578 482.132,348.411 477,358.5C 469.38,364.379 462.714,363.379 457,355.5C 450.768,345.701 448.768,335.034 451,323.5C 451.783,315.357 453.95,307.69 457.5,300.5 Z"/></g>
<g><path style="opacity:1" fill="#fff8f5" d="M 428.5,300.5 C 429.649,300.791 430.316,301.624 430.5,303C 428.537,310.587 424.537,316.921 418.5,322C 416.176,324.088 414.176,323.921 412.5,321.5C 416.168,313.134 421.501,306.134 428.5,300.5 Z"/></g>
<g><path style="opacity:1" fill="#ffdbc5" d="M 265.5,304.5 C 266.725,305.152 267.392,306.319 267.5,308C 267.123,311.796 265.957,315.296 264,318.5C 264.752,313.937 265.252,309.27 265.5,304.5 Z"/></g>
<g><path style="opacity:1" fill="#fff8f4" d="M 103.5,312.5 C 104.649,312.791 105.316,313.624 105.5,315C 105.333,315.833 105.167,316.667 105,317.5C 103.731,316.095 103.231,314.429 103.5,312.5 Z"/></g>
<g><path style="opacity:1" fill="#ffbf97" d="M 302.5,321.5 C 302.833,322.5 303.5,323.167 304.5,323.5C 304.167,324.5 303.5,325.167 302.5,325.5C 302.167,324.5 301.5,323.833 300.5,323.5C 300.833,322.5 301.5,321.833 302.5,321.5 Z"/></g>
<g><path style="opacity:1" fill="#ffa167" d="M 300.5,323.5 C 301.5,323.833 302.167,324.5 302.5,325.5C 298.479,326.304 294.979,328.304 292,331.5C 291.5,331.167 291,330.833 290.5,330.5C 293.475,327.677 296.808,325.344 300.5,323.5 Z"/></g>
<g><path style="opacity:1" fill="#fffaf7" d="M 63.5,338.5 C 64.6491,338.791 65.3158,339.624 65.5,341C 65.3333,341.833 65.1667,342.667 65,343.5C 61.3555,348.089 57.6888,352.755 54,357.5C 50.4325,360.702 46.2659,362.368 41.5,362.5C 41.1437,359.436 41.9771,356.769 44,354.5C 50.1107,348.55 56.6107,343.217 63.5,338.5 Z"/></g>
<g><path style="opacity:1" fill="#ffc7a4" d="M 282.5,337.5 C 284.337,337.639 284.67,338.306 283.5,339.5C 282.702,339.043 282.369,338.376 282.5,337.5 Z"/></g>
<g><path style="opacity:1" fill="#fff2e9" d="M 406.5,337.5 C 407.797,338.849 407.63,340.182 406,341.5C 405.421,340.072 405.588,338.738 406.5,337.5 Z"/></g>
<g><path style="opacity:1" fill="#fff5f0" d="M 140.5,346.5 C 141.788,348.035 141.788,349.701 140.5,351.5C 139.334,349.833 139.334,348.166 140.5,346.5 Z"/></g>
<g><path style="opacity:1" fill="#fff6f1" d="M 98.5,343.5 C 100.379,345.915 100.713,348.582 99.5,351.5C 98.52,348.914 98.1866,346.247 98.5,343.5 Z"/></g>
<g><path style="opacity:1" fill="#ffc29c" d="M 374.5,347.5 C 375.72,349.284 375.72,350.95 374.5,352.5C 373.28,350.716 373.28,349.05 374.5,347.5 Z"/></g>
<g><path style="opacity:1" fill="#ffcfb1" d="M 136.5,352.5 C 138.465,352.948 138.798,353.948 137.5,355.5C 136.614,354.675 136.281,353.675 136.5,352.5 Z"/></g>
<g><path style="opacity:1" fill="#ffd3b8" d="M 99.5,356.5 C 101.441,358.011 101.941,360.011 101,362.5C 99.6814,360.75 99.1814,358.75 99.5,356.5 Z"/></g>
</svg>
